<mxfile host="Electron" modified="2024-12-20T11:08:50.522Z" agent="Mozilla/5.0 (Windows NT 10.0; Win64; x64) AppleWebKit/537.36 (KHTML, like Gecko) draw.io/22.1.21 Chrome/120.0.6099.109 Electron/28.1.0 Safari/537.36" etag="TO0-V1-MV6h9lbdpcl6E" version="22.1.21" type="device">
  <diagram name="Page-1" id="OjxueeuRTwkoeo35K9XI">
    <mxGraphModel dx="2126" dy="1706" grid="1" gridSize="10" guides="1" tooltips="1" connect="1" arrows="1" fold="1" page="1" pageScale="1" pageWidth="850" pageHeight="1100" math="0" shadow="0">
      <root>
        <mxCell id="0" />
        <mxCell id="1" parent="0" />
        <mxCell id="hpiRe4bFhWqV6C55FAIZ-1" value="" style="edgeStyle=orthogonalEdgeStyle;rounded=0;orthogonalLoop=1;jettySize=auto;html=1;" edge="1" parent="1" source="hpiRe4bFhWqV6C55FAIZ-2" target="hpiRe4bFhWqV6C55FAIZ-7">
          <mxGeometry relative="1" as="geometry" />
        </mxCell>
        <mxCell id="hpiRe4bFhWqV6C55FAIZ-2" value="Hiển thị&amp;nbsp; danh sách Giới thiệu" style="rounded=1;whiteSpace=wrap;html=1;fontSize=12;glass=0;strokeWidth=1;shadow=0;" vertex="1" parent="1">
          <mxGeometry x="-438" y="-550" width="120" height="40" as="geometry" />
        </mxCell>
        <mxCell id="hpiRe4bFhWqV6C55FAIZ-3" value="" style="edgeStyle=orthogonalEdgeStyle;rounded=0;orthogonalLoop=1;jettySize=auto;html=1;" edge="1" parent="1" source="hpiRe4bFhWqV6C55FAIZ-4" target="hpiRe4bFhWqV6C55FAIZ-2">
          <mxGeometry relative="1" as="geometry" />
        </mxCell>
        <mxCell id="hpiRe4bFhWqV6C55FAIZ-4" value="" style="strokeWidth=2;html=1;shape=mxgraph.flowchart.start_2;whiteSpace=wrap;" vertex="1" parent="1">
          <mxGeometry x="-394" y="-640" width="66" height="60" as="geometry" />
        </mxCell>
        <mxCell id="hpiRe4bFhWqV6C55FAIZ-5" value="" style="strokeWidth=2;html=1;shape=mxgraph.flowchart.start_2;whiteSpace=wrap;" vertex="1" parent="1">
          <mxGeometry x="-258" y="-20" width="66" height="60" as="geometry" />
        </mxCell>
        <mxCell id="hpiRe4bFhWqV6C55FAIZ-6" value="" style="edgeStyle=orthogonalEdgeStyle;rounded=0;orthogonalLoop=1;jettySize=auto;html=1;" edge="1" parent="1" source="hpiRe4bFhWqV6C55FAIZ-7" target="hpiRe4bFhWqV6C55FAIZ-12">
          <mxGeometry relative="1" as="geometry" />
        </mxCell>
        <mxCell id="hpiRe4bFhWqV6C55FAIZ-7" value="Xóa" style="rounded=1;whiteSpace=wrap;html=1;fontSize=12;glass=0;strokeWidth=1;shadow=0;" vertex="1" parent="1">
          <mxGeometry x="-438" y="-450" width="120" height="40" as="geometry" />
        </mxCell>
        <mxCell id="hpiRe4bFhWqV6C55FAIZ-8" style="edgeStyle=orthogonalEdgeStyle;rounded=0;orthogonalLoop=1;jettySize=auto;html=1;entryX=0.25;entryY=0;entryDx=0;entryDy=0;" edge="1" parent="1" source="hpiRe4bFhWqV6C55FAIZ-12" target="hpiRe4bFhWqV6C55FAIZ-14">
          <mxGeometry relative="1" as="geometry" />
        </mxCell>
        <mxCell id="hpiRe4bFhWqV6C55FAIZ-9" value="xóa" style="edgeLabel;html=1;align=center;verticalAlign=middle;resizable=0;points=[];" vertex="1" connectable="0" parent="hpiRe4bFhWqV6C55FAIZ-8">
          <mxGeometry x="-0.2511" y="5" relative="1" as="geometry">
            <mxPoint as="offset" />
          </mxGeometry>
        </mxCell>
        <mxCell id="hpiRe4bFhWqV6C55FAIZ-10" style="edgeStyle=orthogonalEdgeStyle;rounded=0;orthogonalLoop=1;jettySize=auto;html=1;entryX=1;entryY=0;entryDx=0;entryDy=0;" edge="1" parent="1" source="hpiRe4bFhWqV6C55FAIZ-12" target="hpiRe4bFhWqV6C55FAIZ-15">
          <mxGeometry relative="1" as="geometry" />
        </mxCell>
        <mxCell id="hpiRe4bFhWqV6C55FAIZ-11" value="không" style="edgeLabel;html=1;align=center;verticalAlign=middle;resizable=0;points=[];" vertex="1" connectable="0" parent="hpiRe4bFhWqV6C55FAIZ-10">
          <mxGeometry x="-0.4261" y="-5" relative="1" as="geometry">
            <mxPoint as="offset" />
          </mxGeometry>
        </mxCell>
        <mxCell id="hpiRe4bFhWqV6C55FAIZ-12" value="Xác nhận" style="strokeWidth=2;html=1;shape=mxgraph.flowchart.decision;whiteSpace=wrap;" vertex="1" parent="1">
          <mxGeometry x="-428" y="-370" width="100" height="100" as="geometry" />
        </mxCell>
        <mxCell id="hpiRe4bFhWqV6C55FAIZ-13" value="" style="edgeStyle=orthogonalEdgeStyle;rounded=0;orthogonalLoop=1;jettySize=auto;html=1;" edge="1" parent="1" source="hpiRe4bFhWqV6C55FAIZ-14" target="hpiRe4bFhWqV6C55FAIZ-18">
          <mxGeometry relative="1" as="geometry" />
        </mxCell>
        <mxCell id="hpiRe4bFhWqV6C55FAIZ-14" value="Xóa" style="rounded=1;whiteSpace=wrap;html=1;fontSize=12;glass=0;strokeWidth=1;shadow=0;" vertex="1" parent="1">
          <mxGeometry x="-558" y="-230" width="120" height="40" as="geometry" />
        </mxCell>
        <mxCell id="hpiRe4bFhWqV6C55FAIZ-15" value="không xóa" style="rounded=1;whiteSpace=wrap;html=1;fontSize=12;glass=0;strokeWidth=1;shadow=0;" vertex="1" parent="1">
          <mxGeometry x="-298" y="-240" width="120" height="40" as="geometry" />
        </mxCell>
        <mxCell id="hpiRe4bFhWqV6C55FAIZ-16" style="edgeStyle=orthogonalEdgeStyle;rounded=0;orthogonalLoop=1;jettySize=auto;html=1;entryX=0.75;entryY=0;entryDx=0;entryDy=0;exitX=1;exitY=0.5;exitDx=0;exitDy=0;exitPerimeter=0;" edge="1" parent="1" source="hpiRe4bFhWqV6C55FAIZ-18" target="hpiRe4bFhWqV6C55FAIZ-24">
          <mxGeometry relative="1" as="geometry" />
        </mxCell>
        <mxCell id="hpiRe4bFhWqV6C55FAIZ-17" value="thất bại" style="edgeLabel;html=1;align=center;verticalAlign=middle;resizable=0;points=[];" vertex="1" connectable="0" parent="hpiRe4bFhWqV6C55FAIZ-16">
          <mxGeometry x="-0.4739" y="4" relative="1" as="geometry">
            <mxPoint as="offset" />
          </mxGeometry>
        </mxCell>
        <mxCell id="hpiRe4bFhWqV6C55FAIZ-18" value="" style="strokeWidth=2;html=1;shape=mxgraph.flowchart.decision;whiteSpace=wrap;" vertex="1" parent="1">
          <mxGeometry x="-558" y="-120" width="90" height="90" as="geometry" />
        </mxCell>
        <mxCell id="hpiRe4bFhWqV6C55FAIZ-19" style="edgeStyle=orthogonalEdgeStyle;rounded=0;orthogonalLoop=1;jettySize=auto;html=1;entryX=0;entryY=0.75;entryDx=0;entryDy=0;" edge="1" parent="1" source="hpiRe4bFhWqV6C55FAIZ-20" target="hpiRe4bFhWqV6C55FAIZ-23">
          <mxGeometry relative="1" as="geometry" />
        </mxCell>
        <mxCell id="hpiRe4bFhWqV6C55FAIZ-20" value="Thông báo thành công" style="rounded=1;whiteSpace=wrap;html=1;fontSize=12;glass=0;strokeWidth=1;shadow=0;" vertex="1" parent="1">
          <mxGeometry x="-668" y="-20" width="120" height="40" as="geometry" />
        </mxCell>
        <mxCell id="hpiRe4bFhWqV6C55FAIZ-21" style="edgeStyle=orthogonalEdgeStyle;rounded=0;orthogonalLoop=1;jettySize=auto;html=1;entryX=0.158;entryY=0.075;entryDx=0;entryDy=0;entryPerimeter=0;exitX=0;exitY=0.5;exitDx=0;exitDy=0;exitPerimeter=0;" edge="1" parent="1" source="hpiRe4bFhWqV6C55FAIZ-18" target="hpiRe4bFhWqV6C55FAIZ-20">
          <mxGeometry relative="1" as="geometry" />
        </mxCell>
        <mxCell id="hpiRe4bFhWqV6C55FAIZ-22" value="thành công" style="edgeLabel;html=1;align=center;verticalAlign=middle;resizable=0;points=[];" vertex="1" connectable="0" parent="hpiRe4bFhWqV6C55FAIZ-21">
          <mxGeometry x="-0.2744" relative="1" as="geometry">
            <mxPoint as="offset" />
          </mxGeometry>
        </mxCell>
        <mxCell id="hpiRe4bFhWqV6C55FAIZ-23" value="lấy dữ liệu Giới thiệu mới" style="rounded=1;whiteSpace=wrap;html=1;fontSize=12;glass=0;strokeWidth=1;shadow=0;" vertex="1" parent="1">
          <mxGeometry x="-548" y="70" width="120" height="40" as="geometry" />
        </mxCell>
        <mxCell id="hpiRe4bFhWqV6C55FAIZ-24" value="Thông báo lỗi" style="rounded=1;whiteSpace=wrap;html=1;fontSize=12;glass=0;strokeWidth=1;shadow=0;" vertex="1" parent="1">
          <mxGeometry x="-468" y="-20" width="120" height="40" as="geometry" />
        </mxCell>
        <mxCell id="hpiRe4bFhWqV6C55FAIZ-25" style="edgeStyle=orthogonalEdgeStyle;rounded=0;orthogonalLoop=1;jettySize=auto;html=1;entryX=1;entryY=0.5;entryDx=0;entryDy=0;entryPerimeter=0;exitX=1;exitY=0.5;exitDx=0;exitDy=0;" edge="1" parent="1" source="hpiRe4bFhWqV6C55FAIZ-15" target="hpiRe4bFhWqV6C55FAIZ-5">
          <mxGeometry relative="1" as="geometry" />
        </mxCell>
        <mxCell id="hpiRe4bFhWqV6C55FAIZ-26" style="edgeStyle=orthogonalEdgeStyle;rounded=0;orthogonalLoop=1;jettySize=auto;html=1;entryX=0;entryY=0.5;entryDx=0;entryDy=0;entryPerimeter=0;" edge="1" parent="1" source="hpiRe4bFhWqV6C55FAIZ-24" target="hpiRe4bFhWqV6C55FAIZ-5">
          <mxGeometry relative="1" as="geometry" />
        </mxCell>
        <mxCell id="hpiRe4bFhWqV6C55FAIZ-27" style="edgeStyle=orthogonalEdgeStyle;rounded=0;orthogonalLoop=1;jettySize=auto;html=1;entryX=0.5;entryY=1;entryDx=0;entryDy=0;entryPerimeter=0;" edge="1" parent="1" source="hpiRe4bFhWqV6C55FAIZ-23" target="hpiRe4bFhWqV6C55FAIZ-5">
          <mxGeometry relative="1" as="geometry" />
        </mxCell>
      </root>
    </mxGraphModel>
  </diagram>
</mxfile>
